<svg xmlns="http://www.w3.org/2000/svg" version="1.1" xmlns:xlink="http://www.w3.org/1999/xlink" xmlns:svgjs="http://svgjs.dev/svgjs" width="1500" height="299" viewBox="0 0 1500 299"><g transform="matrix(1,0,0,1,-0.9090909090909918,-0.05808258057572857)"><svg viewBox="0 0 396 79" data-background-color="#ffffff" preserveAspectRatio="xMidYMid meet" height="299" width="1500" xmlns="http://www.w3.org/2000/svg" xmlns:xlink="http://www.w3.org/1999/xlink"><g id="tight-bounds" transform="matrix(1,0,0,1,0.2400000000000091,0.01534623366381993)"><svg viewBox="0 0 395.52 78.96930753267233" height="78.96930753267233" width="395.52"><g><svg viewBox="0 0 532.7422646336505 106.36703006550125" height="78.96930753267233" width="395.52"><g transform="matrix(1,0,0,1,0,14.700508496751624)"><svg viewBox="0 0 395.52 76.966013071998" height="76.966013071998" width="395.52"><g id="textblocktransform"><svg viewBox="0 0 395.52 76.966013071998" height="76.966013071998" width="395.52" id="textblock"><g><svg viewBox="0 0 395.52 53.65634112792297" height="53.65634112792297" width="395.52"><g transform="matrix(1,0,0,1,0,0)"><svg width="395.52" viewBox="0.5 -38.85 288.46000000000004 39.45" height="53.65634112792297" data-palette-color="#6c47ff"><g class="wordmark-text-0" data-fill-palette-color="primary" id="text-0"><path d="M11.65-33.9Q10.05-33.9 9.3-33.1 8.55-32.3 8.55-30.55L8.55-30.55 8.55-26.35 13.85-26.35 13.35-22.9 8.55-22.9 8.55 0 4.15 0 4.15-22.9 0.5-22.9 0.5-26.35 4.15-26.35 4.15-30.5Q4.15-33.6 6.03-35.52 7.9-37.45 11.3-37.45L11.3-37.45Q14.05-37.45 16.65-36.1L16.65-36.1 15.35-33Q13.5-33.9 11.65-33.9L11.65-33.9ZM22.4 0.6Q20.2 0.6 18.87-0.8 17.55-2.2 17.55-4.6L17.55-4.6 17.55-36.95 21.95-37.45 21.95-4.7Q21.95-3.05 23.35-3.05L23.35-3.05Q24-3.05 24.6-3.3L24.6-3.3 25.6-0.3Q24.15 0.6 22.4 0.6L22.4 0.6ZM30-26.35L34.4-26.35 34.4 0 30 0 30-26.35ZM32.15-38.85Q33.5-38.85 34.3-38 35.09-37.15 35.09-35.8L35.09-35.8Q35.09-34.55 34.27-33.7 33.45-32.85 32.15-32.85L32.15-32.85Q30.85-32.85 30.02-33.7 29.2-34.55 29.2-35.8L29.2-35.8Q29.2-37.1 30.02-37.98 30.85-38.85 32.15-38.85L32.15-38.85ZM57.34-26.35L50.84-14.1 58.29 0 53.54 0 48.19-11.35 42.84 0 38.29 0 45.74-13.9 39.09-26.35 43.74-26.35 48.29-16.5 52.84-26.35 57.34-26.35Z" fill="#6c47ff" data-fill-palette-color="primary"></path><path d="M94.14-26.35L98.24-26.35 93.44 0 87.59 0 84.04-22.25 80.54 0 74.79 0 69.89-26.35 74.19-26.35 77.79-3.25 81.59-26.35 86.74-26.35 90.44-3.25 94.14-26.35ZM102.89-26.35L107.29-26.35 107.29 0 102.89 0 102.89-26.35ZM105.04-38.85Q106.39-38.85 107.19-38 107.99-37.15 107.99-35.8L107.99-35.8Q107.99-34.55 107.16-33.7 106.34-32.85 105.04-32.85L105.04-32.85Q103.74-32.85 102.91-33.7 102.09-34.55 102.09-35.8L102.09-35.8Q102.09-37.1 102.91-37.98 103.74-38.85 105.04-38.85L105.04-38.85ZM124.53-3.95L126.23-1.2Q123.98 0.6 121.18 0.6L121.18 0.6Q118.23 0.6 116.61-1.15 114.98-2.9 114.98-5.85L114.98-5.85 114.98-22.9 111.43-22.9 111.43-26.35 114.98-26.35 114.98-32.3 119.38-32.85 119.38-26.35 124.48-26.35 124.03-22.9 119.38-22.9 119.38-5.8Q119.38-3.05 121.73-3.05L121.73-3.05Q122.53-3.05 123.13-3.25 123.73-3.45 124.53-3.95L124.53-3.95ZM140.63-26.9Q143.48-26.9 145.18-24.85 146.88-22.8 146.88-19.35L146.88-19.35 146.88 0 142.48 0 142.48-18.75Q142.48-21.3 141.76-22.38 141.03-23.45 139.58-23.45L139.58-23.45Q136.73-23.45 134.28-18.55L134.28-18.55 134.28 0 129.88 0 129.88-36.9 134.28-37.35 134.28-22.65Q135.53-24.75 137.01-25.83 138.48-26.9 140.63-26.9L140.63-26.9Z" fill="#b60a3a" data-fill-palette-color="tertiary"></path><path d="M169.13-33.9Q167.53-33.9 166.78-33.1 166.03-32.3 166.03-30.55L166.03-30.55 166.03-26.35 171.33-26.35 170.83-22.9 166.03-22.9 166.03 0 161.63 0 161.63-22.9 157.98-22.9 157.98-26.35 161.63-26.35 161.63-30.5Q161.63-33.6 163.5-35.52 165.38-37.45 168.78-37.45L168.78-37.45Q171.53-37.45 174.13-36.1L174.13-36.1 172.83-33Q170.98-33.9 169.13-33.9L169.13-33.9ZM185.38-26.9Q186.47-26.9 187.38-26.6L187.38-26.6 186.63-22.35Q185.63-22.6 184.83-22.6L184.83-22.6Q182.88-22.6 181.63-20.85 180.38-19.1 179.68-15.5L179.68-15.5 179.68 0 175.28 0 175.28-26.35 179.08-26.35 179.43-21.45Q181.28-26.9 185.38-26.9L185.38-26.9ZM191.42-26.35L195.82-26.35 195.82 0 191.42 0 191.42-26.35ZM193.57-38.85Q194.92-38.85 195.72-38 196.52-37.15 196.52-35.8L196.52-35.8Q196.52-34.55 195.7-33.7 194.87-32.85 193.57-32.85L193.57-32.85Q192.27-32.85 191.45-33.7 190.62-34.55 190.62-35.8L190.62-35.8Q190.62-37.1 191.45-37.98 192.27-38.85 193.57-38.85L193.57-38.85ZM220.17-13.95Q220.17-12.85 220.07-11.65L220.07-11.65 206.27-11.65Q206.47-6.9 207.85-4.95 209.22-3 211.77-3L211.77-3Q213.42-3 214.72-3.53 216.02-4.05 217.42-5.2L217.42-5.2 219.37-2.55Q216.07 0.6 211.62 0.6L211.62 0.6Q206.92 0.6 204.32-2.88 201.72-6.35 201.72-12.9L201.72-12.9Q201.72-19.45 204.2-23.18 206.67-26.9 211.17-26.9L211.17-26.9Q215.52-26.9 217.85-23.63 220.17-20.35 220.17-13.95L220.17-13.95ZM215.92-14.9L215.92-15.25Q215.92-19.55 214.77-21.5 213.62-23.45 211.17-23.45L211.17-23.45Q208.97-23.45 207.72-21.48 206.47-19.5 206.27-14.9L206.27-14.9 215.92-14.9ZM236.57-26.9Q239.42-26.9 241.12-24.85 242.82-22.8 242.82-19.35L242.82-19.35 242.82 0 238.42 0 238.42-18.75Q238.42-21.3 237.69-22.38 236.97-23.45 235.52-23.45L235.52-23.45Q232.67-23.45 230.22-18.55L230.22-18.55 230.22 0 225.82 0 225.82-26.35 229.62-26.35 229.97-22.4Q231.27-24.6 232.82-25.75 234.37-26.9 236.57-26.9L236.57-26.9ZM262.77-37.45L267.17-36.95 267.17 0 263.27 0 262.97-3.35Q260.62 0.6 256.97 0.6L256.97 0.6Q252.87 0.6 250.69-3.03 248.52-6.65 248.52-13.05L248.52-13.05Q248.52-17.2 249.62-20.35 250.72-23.5 252.67-25.2 254.62-26.9 257.12-26.9L257.12-26.9Q260.57-26.9 262.77-23.85L262.77-23.85 262.77-37.45ZM257.82-2.9Q260.67-2.9 262.77-6.65L262.77-6.65 262.77-20Q260.72-23.4 258.02-23.4L258.02-23.4Q255.72-23.4 254.44-20.9 253.17-18.4 253.17-13.15L253.17-13.15Q253.17-2.9 257.82-2.9L257.82-2.9ZM280.86-26.9Q285.21-26.9 288.31-23.95L288.31-23.95 286.41-21.4Q285.01-22.45 283.71-22.98 282.41-23.5 280.96-23.5L280.96-23.5Q279.21-23.5 278.19-22.53 277.16-21.55 277.16-19.85L277.16-19.85Q277.16-18.2 278.16-17.25 279.16-16.3 281.96-15.3L281.96-15.3Q285.56-14 287.26-12.2 288.96-10.4 288.96-7.3L288.96-7.3Q288.96-3.55 286.44-1.48 283.91 0.6 280.16 0.6L280.16 0.6Q275.16 0.6 271.81-2.85L271.81-2.85 274.11-5.3Q276.91-2.85 280.06-2.85L280.06-2.85Q282.06-2.85 283.26-3.95 284.46-5.05 284.46-7.05L284.46-7.05Q284.46-8.4 284.01-9.25 283.56-10.1 282.46-10.8 281.36-11.5 279.26-12.25L279.26-12.25Q275.76-13.55 274.26-15.33 272.76-17.1 272.76-19.7L272.76-19.7Q272.76-21.7 273.79-23.35 274.81-25 276.66-25.95 278.51-26.9 280.86-26.9L280.86-26.9Z" fill="#6c47ff" data-fill-palette-color="primary"></path></g></svg></g></svg></g><g transform="matrix(1,0,0,1,163.310208,66.32331551603852)"><svg viewBox="0 0 232.209792 10.642697555959492" height="10.642697555959492" width="232.209792"><g transform="matrix(1,0,0,1,0,0)"><svg width="232.209792" viewBox="1.38 -31.38 885.19 40.58" height="10.642697555959492" data-palette-color="#6c47ff"><path d="M25-1.9L18.97-18.45 12.87-1.9Q12.24 0 10.43 0 8.62 0 8.1-1.84L8.1-1.84 1.49-19.48Q1.38-19.83 1.38-20.14 1.38-20.46 1.49-20.8 1.61-21.15 1.9-21.26L1.9-21.26Q2.53-21.72 2.99-21.84L2.99-21.84Q4.37-21.84 4.66-20.57L4.66-20.57 10.57-3.79 16.67-20Q17.24-21.72 19.08-21.84L19.08-21.84Q19.89-21.84 20.57-21.44 21.26-21.03 21.61-20L21.61-20 27.36-3.97 33.22-20.57Q33.62-21.84 34.71-21.84L34.71-21.84Q35.4-21.84 35.89-21.35 36.38-20.86 36.38-20.34 36.38-19.83 36.32-19.48L36.32-19.48 29.54-1.84Q28.97 0 27.36 0L27.36 0Q25.52 0 25-1.9L25-1.9ZM56.15-1.61L56.15-14.14Q56.15-16.78 54.65-18.28L54.65-18.28Q53.33-19.54 51.58-19.54 49.83-19.54 48.62-19.14 47.41-18.74 46.49-17.82L46.49-17.82Q44.54-15.98 44.54-12.59L44.54-12.59 44.54-1.61Q44.54-0.8 43.96-0.4 43.39 0 42.7 0L42.7 0Q42.01 0 41.55-0.43 41.09-0.86 41.09-1.61L41.09-1.61 41.09-29.66Q41.09-30.46 41.66-30.86 42.24-31.26 42.81-31.26L42.81-31.26Q43.5-31.26 44.02-30.89 44.54-30.52 44.54-29.66L44.54-29.66 44.54-18.1Q45.34-20.11 47.53-21.21L47.53-21.21Q49.54-22.24 51.52-22.24 53.5-22.24 54.88-21.75 56.26-21.26 57.41-20.34L57.41-20.34Q59.71-18.16 59.71-13.91L59.71-13.91 59.71-1.61Q59.71-0.8 59.11-0.4 58.5 0 57.87 0L57.87 0Q57.18 0 56.66-0.43 56.15-0.86 56.15-1.61L56.15-1.61ZM85.86-11.55L85.86-11.55Q85.86-10.34 84.48-10.23L84.48-10.23 68.73-10.23Q68.96-4.37 73.33-2.64L73.33-2.64Q74.54-2.24 76.09-2.24L76.09-2.24Q79.31-2.24 82.64-4.6L82.64-4.6Q83.67-5.17 84.36-4.48L84.36-4.48Q84.71-4.14 84.59-3.79L84.59-3.79Q84.59-2.99 84.19-2.64L84.19-2.64Q81.03 0.52 75.86 0.46L75.86 0.46Q71.14 0.46 68.27-2.59L68.27-2.59Q65.05-5.75 65.05-10.92L65.05-10.92Q65.05-15.69 67.7-18.79L67.7-18.79Q70.45-22.24 75.51-22.24L75.51-22.24Q80.57-22.24 83.21-19.2L83.21-19.2Q85.74-16.44 85.86-11.55ZM68.85-12.59L82.47-12.59Q82.29-15.69 80.45-17.7L80.45-17.7Q78.73-19.54 75.51-19.54L75.51-19.54Q72.75-19.54 70.8-17.47L70.8-17.47Q69.02-15.4 68.85-12.59L68.85-12.59ZM94.71-20.11L94.71-18.16Q96.08-22.24 100.74-22.24L100.74-22.24Q101.6-22.24 102.03-21.75 102.46-21.26 102.46-20.72 102.46-20.17 102.03-19.68 101.6-19.2 100.45-19.2 99.3-19.2 98.15-18.74 97-18.28 96.26-17.41L96.26-17.41Q94.71-15.52 94.71-12.41L94.71-12.41 94.71-1.61Q94.71-0.8 94.13-0.4 93.56 0 93.1 0 92.64 0 92.35-0.09 92.06-0.17 91.77-0.46L91.77-0.46Q91.26-0.8 91.26-1.61L91.26-1.61 91.26-20.11Q91.26-20.86 91.77-21.35 92.29-21.84 93.07-21.84 93.84-21.84 94.27-21.35 94.71-20.86 94.71-20.11L94.71-20.11ZM126.2-11.55L126.2-11.55Q126.2-10.34 124.82-10.23L124.82-10.23 109.07-10.23Q109.3-4.37 113.67-2.64L113.67-2.64Q114.88-2.24 116.43-2.24L116.43-2.24Q119.65-2.24 122.98-4.6L122.98-4.6Q124.01-5.17 124.7-4.48L124.7-4.48Q125.05-4.14 124.93-3.79L124.93-3.79Q124.93-2.99 124.53-2.64L124.53-2.64Q121.37 0.52 116.2 0.46L116.2 0.46Q111.48 0.46 108.61-2.59L108.61-2.59Q105.39-5.75 105.39-10.92L105.39-10.92Q105.39-15.69 108.04-18.79L108.04-18.79Q110.79-22.24 115.85-22.24L115.85-22.24Q120.91-22.24 123.55-19.2L123.55-19.2Q126.08-16.44 126.2-11.55ZM109.19-12.59L122.81-12.59Q122.63-15.69 120.79-17.7L120.79-17.7Q119.07-19.54 115.85-19.54L115.85-19.54Q113.09-19.54 111.14-17.47L111.14-17.47Q109.36-15.4 109.19-12.59L109.19-12.59ZM161.08-17.7L161.08-17.7Q163.84-22.24 169.01-22.24L169.01-22.24Q174.35-22.24 176.13-17.76L176.13-17.76Q176.77-16.09 176.77-13.91L176.77-13.91 176.77-1.61Q176.77-0.8 176.22-0.4 175.67 0 175.04 0L175.04 0Q174.35 0 173.81-0.43 173.26-0.86 173.26-1.61L173.26-1.61 173.26-14.14Q173.26-16.78 171.77-18.28L171.77-18.28Q170.39-19.54 168.2-19.54L168.2-19.54Q163.84-19.54 162.28-15.98L162.28-15.98Q161.65-14.66 161.65-12.76L161.65-12.76 161.65-1.61Q161.65-0.8 161.11-0.4 160.56 0 159.93 0L159.93 0Q159.24 0 158.69-0.43 158.15-0.86 158.15-1.61L158.15-1.61 158.15-14.14Q158.15-16.78 156.71-18.28L156.71-18.28Q155.33-19.54 153.55-19.54 151.77-19.54 150.62-19.14 149.47-18.74 148.55-17.82L148.55-17.82Q146.71-15.98 146.59-12.64L146.59-12.64 146.59-1.61Q146.59-0.8 146.02-0.4 145.44 0 144.81 0 144.18 0 143.61-0.43 143.03-0.86 143.03-1.61L143.03-1.61 143.03-20.17Q143.03-20.92 143.61-21.38 144.18-21.84 144.7-21.84 145.21-21.84 145.5-21.7 145.79-21.55 146.02-21.38L146.02-21.38Q146.59-20.92 146.59-20.23L146.59-20.23 146.59-18.16Q147.4-20.11 149.53-21.21L149.53-21.21Q151.42-22.24 153.95-22.24L153.95-22.24Q157.86-22.24 159.93-19.77L159.93-19.77Q160.62-18.85 161.08-17.7ZM181.94-10.86L181.94-10.86Q181.94-12.93 182.6-15 183.26-17.07 184.64-18.74L184.64-18.74Q187.51-22.24 192.8-22.24 198.09-22.24 200.96-18.74L200.96-18.74Q203.66-15.4 203.66-10.92L203.66-10.92Q203.66-6.38 200.96-3.1L200.96-3.1Q198.09 0.46 192.8 0.46 187.51 0.46 184.64-3.1L184.64-3.1Q181.94-6.32 181.94-10.86ZM185.67-10.86L185.67-10.86Q185.67-9.48 186.05-7.93 186.42-6.38 187.4-5.06L187.4-5.06Q189.35-2.24 192.8-2.24L192.8-2.24Q196.42-2.24 198.2-5.06L198.2-5.06Q199.87-7.7 199.87-10.92L199.87-10.92Q199.87-14.25 198.2-16.67L198.2-16.67Q196.36-19.54 192.8-19.54L192.8-19.54Q189.35-19.54 187.4-16.67L187.4-16.67Q185.67-14.31 185.67-10.86ZM226.7-19.54L219.92-2.64Q219.35-1.26 218.69-0.63 218.03 0 216.82 0L216.82 0Q215.61 0 214.95-0.6 214.29-1.21 213.83-2.64L213.83-2.64 206.65-19.54Q206.13-20.52 207.16-21.26L207.16-21.26Q207.74-21.72 208.31-21.84L208.31-21.84Q209.58-21.84 209.92-20.57L209.92-20.57 216.82-4.02 223.49-20.57Q223.89-21.72 224.98-21.84L224.98-21.84Q226.13-21.84 226.7-20.86L226.7-20.86Q226.93-20.52 226.88-20.2 226.82-19.89 226.7-19.54L226.7-19.54ZM235.49-29.43L235.49-29.43Q235.49-28.51 234.86-27.93 234.23-27.36 233.08-27.36 231.93-27.36 231.3-27.93 230.67-28.51 230.67-29.43L230.67-29.43Q230.67-30.23 231.3-30.8 231.93-31.38 233.11-31.38 234.29-31.38 234.89-30.8 235.49-30.23 235.49-29.43ZM231.36-1.72L231.36-20Q231.36-20.86 231.93-21.35 232.51-21.84 232.97-21.84 233.43-21.84 233.71-21.7 234-21.55 234.29-21.26L234.29-21.26Q234.92-20.86 234.92-20L234.92-20 234.92-1.72Q234.92-0.86 234.35-0.43 233.77 0 233.08 0L233.08 0Q232.39 0 231.87-0.43 231.36-0.86 231.36-1.72L231.36-1.72ZM261.12-11.55L261.12-11.55Q261.12-10.34 259.75-10.23L259.75-10.23 244-10.23Q244.23-4.37 248.6-2.64L248.6-2.64Q249.8-2.24 251.35-2.24L251.35-2.24Q254.57-2.24 257.91-4.6L257.91-4.6Q258.94-5.17 259.63-4.48L259.63-4.48Q259.98-4.14 259.86-3.79L259.86-3.79Q259.86-2.99 259.46-2.64L259.46-2.64Q256.3 0.52 251.12 0.46L251.12 0.46Q246.41 0.46 243.54-2.59L243.54-2.59Q240.32-5.75 240.32-10.92L240.32-10.92Q240.32-15.69 242.96-18.79L242.96-18.79Q245.72-22.24 250.78-22.24L250.78-22.24Q255.84-22.24 258.48-19.2L258.48-19.2Q261.01-16.44 261.12-11.55ZM244.11-12.59L257.73-12.59Q257.56-15.69 255.72-17.7L255.72-17.7Q254-19.54 250.78-19.54L250.78-19.54Q248.02-19.54 246.07-17.47L246.07-17.47Q244.29-15.4 244.11-12.59L244.11-12.59ZM296-17.7L296-17.7Q298.76-22.24 303.94-22.24L303.94-22.24Q309.28-22.24 311.06-17.76L311.06-17.76Q311.69-16.09 311.69-13.91L311.69-13.91 311.69-1.61Q311.69-0.8 311.15-0.4 310.6 0 309.97 0L309.97 0Q309.28 0 308.73-0.43 308.19-0.86 308.19-1.61L308.19-1.61 308.19-14.14Q308.19-16.78 306.69-18.28L306.69-18.28Q305.31-19.54 303.13-19.54L303.13-19.54Q298.76-19.54 297.21-15.98L297.21-15.98Q296.58-14.66 296.58-12.76L296.58-12.76 296.58-1.61Q296.58-0.8 296.03-0.4 295.49 0 294.86 0L294.86 0Q294.17 0 293.62-0.43 293.07-0.86 293.07-1.61L293.07-1.61 293.07-14.14Q293.07-16.78 291.64-18.28L291.64-18.28Q290.26-19.54 288.48-19.54 286.69-19.54 285.54-19.14 284.4-18.74 283.48-17.82L283.48-17.82Q281.64-15.98 281.52-12.64L281.52-12.64 281.52-1.61Q281.52-0.8 280.95-0.4 280.37 0 279.74 0 279.11 0 278.53-0.43 277.96-0.86 277.96-1.61L277.96-1.61 277.96-20.17Q277.96-20.92 278.53-21.38 279.11-21.84 279.63-21.84 280.14-21.84 280.43-21.7 280.72-21.55 280.95-21.38L280.95-21.38Q281.52-20.92 281.52-20.23L281.52-20.23 281.52-18.16Q282.33-20.11 284.45-21.21L284.45-21.21Q286.35-22.24 288.88-22.24L288.88-22.24Q292.79-22.24 294.86-19.77L294.86-19.77Q295.54-18.85 296-17.7ZM328.76-13.28L328.76-13.28Q329.97-13.28 331.17-13.22L331.17-13.22 331.17-15.06Q331.17-19.54 326.17-19.54L326.17-19.54Q323.93-19.54 322.9-19.14L322.9-19.14Q321.06-18.45 320.25-17.96 319.45-17.47 318.99-17.47 318.53-17.47 318.13-17.82 317.73-18.16 317.73-18.74L317.73-18.74Q317.73-19.2 318.24-19.66L318.24-19.66Q320.94-22.24 326.23-22.24L326.23-22.24Q332.32-22.24 334.05-18.16L334.05-18.16Q334.62-16.72 334.62-14.83L334.62-14.83 334.51-1.55Q334.51-0.8 333.99-0.4 333.47 0 332.84 0 332.21 0 331.69-0.34 331.17-0.69 331.17-1.49L331.17-1.49 331.17-3.56Q329.8-0.57 326.23 0.17L326.23 0.17Q325.14 0.46 323.76 0.46 322.38 0.46 321.03 0.06 319.68-0.34 318.65-1.21L318.65-1.21Q316.52-2.99 316.52-6.03L316.52-6.03Q316.52-13.28 328.76-13.28ZM331.17-8.74L331.17-10.69Q330.25-10.57 329.05-10.57 327.84-10.57 326.58-10.55 325.31-10.52 324.16-10.26 323.01-10 322.09-9.48L322.09-9.48Q320.14-8.45 320.02-6.09L320.02-6.09Q320.02-4.25 321.52-3.22L321.52-3.22Q322.67-2.3 324.8-2.24L324.8-2.24Q327.38-2.24 329.28-3.91L329.28-3.91Q331-5.52 331.17-8.74L331.17-8.74ZM349.97-19.48L349.97-19.48Q343.53-19.48 343.53-10.92L343.53-10.92Q343.53-6.9 345.54-4.6L345.54-4.6Q347.26-2.59 350.02-2.53L350.02-2.53Q352.84-2.53 354.79-4.66L354.79-4.66Q356.86-6.9 356.86-10.8L356.86-10.8Q356.86-16.67 353.18-18.74L353.18-18.74Q351.92-19.48 349.97-19.48ZM349.05-22.24L349.05-22.24Q354.68-22.24 356.98-17.93L356.98-17.93 356.98-20.34Q357.09-21.03 357.55-21.44 358.01-21.84 358.64-21.84 359.28-21.84 359.79-21.38 360.31-20.92 360.31-20.17L360.31-20.17 360.31 0.46Q360.31 4.94 357.44 7.13L357.44 7.13Q354.85 9.2 349.97 9.2L349.97 9.2Q345.6 9.2 343.41 7.7L343.41 7.7Q341.69 6.44 341.69 5.63L341.69 5.63Q341.69 5.06 342.06 4.68 342.44 4.31 342.92 4.31 343.41 4.31 343.87 4.63 344.33 4.94 344.97 5.23 345.6 5.52 346.23 5.75L346.23 5.75Q347.9 6.32 349.65 6.32 351.4 6.32 352.69 6.03 353.99 5.75 354.91 5.06L354.91 5.06Q356.86 3.79 356.86 0.69L356.86 0.69 356.86-4.31Q355.19-1.15 351.57-0.23L351.57-0.23Q350.42 0 349.33 0L349.33 0Q344.56 0 342.03-3.28L342.03-3.28Q339.68-6.21 339.68-10.8L339.68-10.8Q339.68-15.69 342.03-18.79L342.03-18.79Q344.51-22.24 349.05-22.24ZM370.77-29.43L370.77-29.43Q370.77-28.51 370.13-27.93 369.5-27.36 368.35-27.36 367.2-27.36 366.57-27.93 365.94-28.51 365.94-29.43L365.94-29.43Q365.94-30.23 366.57-30.8 367.2-31.38 368.38-31.38 369.56-31.38 370.16-30.8 370.77-30.23 370.77-29.43ZM366.63-1.72L366.63-20Q366.63-20.86 367.2-21.35 367.78-21.84 368.24-21.84 368.7-21.84 368.99-21.7 369.27-21.55 369.56-21.26L369.56-21.26Q370.19-20.86 370.19-20L370.19-20 370.19-1.72Q370.19-0.86 369.62-0.43 369.04 0 368.35 0L368.35 0Q367.66 0 367.15-0.43 366.63-0.86 366.63-1.72L366.63-1.72ZM375.48-10.92L375.48-10.92Q375.48-15.69 378.18-18.85L378.18-18.85Q381.11-22.24 385.82-22.24L385.82-22.24Q389.85-22.24 391.97-20.57L391.97-20.57Q392.6-20.11 392.6-19.48 392.6-18.85 392.26-18.48 391.91-18.1 391.45-18.1 390.99-18.1 390.76-18.28L390.76-18.28Q388.58-19.54 386.17-19.48L386.17-19.48Q383.01-19.48 381.22-17.13L381.22-17.13Q379.21-14.71 379.21-10.92L379.21-10.92Q379.21-7.41 380.65-5L380.65-5Q382.37-2.24 386.17-2.24L386.17-2.24Q388.24-2.24 391.22-3.68L391.22-3.68Q392.03-4.14 392.6-3.45L392.6-3.45Q392.95-3.1 392.95-2.5 392.95-1.9 392.2-1.29 391.45-0.69 390.42-0.34L390.42-0.34Q387.89 0.52 385.53 0.49 383.18 0.46 381.28-0.4 379.39-1.26 378.12-2.93L378.12-2.93Q375.48-6.09 375.48-10.92ZM427.71-17.7L427.71-17.7Q430.47-22.24 435.64-22.24L435.64-22.24Q440.99-22.24 442.77-17.76L442.77-17.76Q443.4-16.09 443.4-13.91L443.4-13.91 443.4-1.61Q443.4-0.8 442.86-0.4 442.31 0 441.68 0L441.68 0Q440.99 0 440.44-0.43 439.9-0.86 439.9-1.61L439.9-1.61 439.9-14.14Q439.9-16.78 438.4-18.28L438.4-18.28Q437.02-19.54 434.84-19.54L434.84-19.54Q430.47-19.54 428.92-15.98L428.92-15.98Q428.29-14.66 428.29-12.76L428.29-12.76 428.29-1.61Q428.29-0.8 427.74-0.4 427.2 0 426.56 0L426.56 0Q425.87 0 425.33-0.43 424.78-0.86 424.78-1.61L424.78-1.61 424.78-14.14Q424.78-16.78 423.35-18.28L423.35-18.28Q421.97-19.54 420.18-19.54 418.4-19.54 417.25-19.14 416.1-18.74 415.18-17.82L415.18-17.82Q413.35-15.98 413.23-12.64L413.23-12.64 413.23-1.61Q413.23-0.8 412.66-0.4 412.08 0 411.45 0 410.82 0 410.24-0.43 409.67-0.86 409.67-1.61L409.67-1.61 409.67-20.17Q409.67-20.92 410.24-21.38 410.82-21.84 411.33-21.84 411.85-21.84 412.14-21.7 412.43-21.55 412.66-21.38L412.66-21.38Q413.23-20.92 413.23-20.23L413.23-20.23 413.23-18.16Q414.04-20.11 416.16-21.21L416.16-21.21Q418.06-22.24 420.59-22.24L420.59-22.24Q424.5-22.24 426.56-19.77L426.56-19.77Q427.25-18.85 427.71-17.7ZM469.55-11.55L469.55-11.55Q469.55-10.34 468.17-10.23L468.17-10.23 452.42-10.23Q452.65-4.37 457.02-2.64L457.02-2.64Q458.23-2.24 459.78-2.24L459.78-2.24Q463-2.24 466.33-4.6L466.33-4.6Q467.37-5.17 468.06-4.48L468.06-4.48Q468.4-4.14 468.29-3.79L468.29-3.79Q468.29-2.99 467.88-2.64L467.88-2.64Q464.72 0.52 459.55 0.46L459.55 0.46Q454.84 0.46 451.96-2.59L451.96-2.59Q448.75-5.75 448.75-10.92L448.75-10.92Q448.75-15.69 451.39-18.79L451.39-18.79Q454.15-22.24 459.21-22.24L459.21-22.24Q464.26-22.24 466.91-19.2L466.91-19.2Q469.44-16.44 469.55-11.55ZM452.54-12.59L466.16-12.59Q465.99-15.69 464.15-17.7L464.15-17.7Q462.42-19.54 459.21-19.54L459.21-19.54Q456.45-19.54 454.49-17.47L454.49-17.47Q452.71-15.4 452.54-12.59L452.54-12.59ZM494.38-11.55L494.38-11.55Q494.38-10.34 493-10.23L493-10.23 477.25-10.23Q477.48-4.37 481.85-2.64L481.85-2.64Q483.05-2.24 484.61-2.24L484.61-2.24Q487.82-2.24 491.16-4.6L491.16-4.6Q492.19-5.17 492.88-4.48L492.88-4.48Q493.23-4.14 493.11-3.79L493.11-3.79Q493.11-2.99 492.71-2.64L492.71-2.64Q489.55 0.52 484.38 0.46L484.38 0.46Q479.66 0.46 476.79-2.59L476.79-2.59Q473.57-5.75 473.57-10.92L473.57-10.92Q473.57-15.69 476.21-18.79L476.21-18.79Q478.97-22.24 484.03-22.24L484.03-22.24Q489.09-22.24 491.73-19.2L491.73-19.2Q494.26-16.44 494.38-11.55ZM477.36-12.59L490.98-12.59Q490.81-15.69 488.97-17.7L488.97-17.7Q487.25-19.54 484.03-19.54L484.03-19.54Q481.27-19.54 479.32-17.47L479.32-17.47Q477.54-15.4 477.36-12.59L477.36-12.59ZM511.27-1.26L511.27-1.26Q511.27 0.46 507.19 0.46L507.19 0.46Q504.14 0.46 502.88-1.21L502.88-1.21Q501.5-2.99 501.38-7.07L501.38-7.07 501.38-19.14 498.86-19.14Q498.17-19.14 497.76-19.57 497.36-20 497.36-20.46L497.36-20.46Q497.36-20.92 497.71-21.38 498.05-21.84 498.86-21.84L498.86-21.84 501.61-21.84 501.84-28.05Q501.96-28.74 502.48-29.11 502.99-29.48 503.57-29.48 504.14-29.48 504.55-29.14 504.95-28.79 504.95-28.05L504.95-28.05 504.95-21.84 508.91-21.84Q509.6-21.84 509.98-21.38 510.35-20.92 510.35-20.46L510.35-20.46Q510.35-19.89 509.98-19.51 509.6-19.14 508.91-19.14L508.91-19.14 504.95-19.14 504.95-8.97Q504.95-4.71 505.23-3.82 505.52-2.93 506.15-2.59 506.79-2.24 507.71-2.24L507.71-2.24 509.95-2.41Q510.58-2.41 510.92-2.01 511.27-1.61 511.27-1.26ZM522.93-19.54L522.93-19.54Q517.93-19.54 518.05-16.38L518.05-16.38Q518.05-14.37 520.92-13.62L520.92-13.62Q521.9-13.33 523.02-13.1 524.14-12.87 525.46-12.56 526.78-12.24 528.16-11.72L528.16-11.72Q530.12-11.15 531.18-9.8 532.24-8.45 532.24-6.55L532.24-6.55Q532.24-3.1 529.31-1.21L529.31-1.21Q526.67 0.52 522.65 0.46L522.65 0.46Q519.66 0.46 516.78-0.57L516.78-0.57Q515.63-1.03 514.95-1.67 514.26-2.3 514.26-2.87 514.26-3.45 514.63-3.79 515-4.14 515.52-4.14 516.04-4.14 516.7-3.85 517.36-3.56 518.39-3.22L518.39-3.22Q521.04-2.24 522.65-2.24 524.26-2.24 525.23-2.44 526.21-2.64 527.01-3.1L527.01-3.1Q528.74-4.25 528.74-6.09L528.74-6.09Q528.74-7.41 527.9-8.13 527.07-8.85 525.78-9.25 524.49-9.66 523.22-9.94 521.96-10.23 520.69-10.52 519.43-10.8 518.28-11.21 517.13-11.61 516.32-12.3L516.32-12.3Q514.37-13.68 514.37-16.21L514.37-16.21Q514.37-19.43 517.07-20.86L517.07-20.86Q519.31-22.24 522.99-22.24L522.99-22.24Q526.73-22.24 528.97-21.15L528.97-21.15Q530.86-20.17 530.86-18.97L530.86-18.97Q530.86-18.51 530.49-18.22 530.12-17.93 529.66-17.93L529.66-17.93Q528.8-17.93 528.36-18.22 527.93-18.51 527.42-18.79 526.9-19.08 526.21-19.2L526.21-19.2Q524.95-19.54 522.93-19.54ZM556.95-19.54L556.95-19.54Q551.95-19.54 552.07-16.38L552.07-16.38Q552.07-14.37 554.94-13.62L554.94-13.62Q555.92-13.33 557.04-13.1 558.16-12.87 559.48-12.56 560.8-12.24 562.18-11.72L562.18-11.72Q564.14-11.15 565.2-9.8 566.26-8.45 566.26-6.55L566.26-6.55Q566.26-3.1 563.33-1.21L563.33-1.21Q560.69 0.52 556.66 0.46L556.66 0.46Q553.68 0.46 550.8-0.57L550.8-0.57Q549.65-1.03 548.96-1.67 548.27-2.3 548.27-2.87 548.27-3.45 548.65-3.79 549.02-4.14 549.54-4.14 550.05-4.14 550.72-3.85 551.38-3.56 552.41-3.22L552.41-3.22Q555.05-2.24 556.66-2.24 558.27-2.24 559.25-2.44 560.23-2.64 561.03-3.1L561.03-3.1Q562.76-4.25 562.76-6.09L562.76-6.09Q562.76-7.41 561.92-8.13 561.09-8.85 559.8-9.25 558.5-9.66 557.24-9.94 555.97-10.23 554.71-10.52 553.45-10.8 552.3-11.21 551.15-11.61 550.34-12.3L550.34-12.3Q548.39-13.68 548.39-16.21L548.39-16.21Q548.39-19.43 551.09-20.86L551.09-20.86Q553.33-22.24 557.01-22.24L557.01-22.24Q560.74-22.24 562.99-21.15L562.99-21.15Q564.88-20.17 564.88-18.97L564.88-18.97Q564.88-18.51 564.51-18.22 564.14-17.93 563.68-17.93L563.68-17.93Q562.81-17.93 562.38-18.22 561.95-18.51 561.43-18.79 560.92-19.08 560.23-19.2L560.23-19.2Q558.96-19.54 556.95-19.54ZM570.11-10.86L570.11-10.86Q570.11-12.93 570.77-15 571.43-17.07 572.81-18.74L572.81-18.74Q575.68-22.24 580.97-22.24 586.26-22.24 589.13-18.74L589.13-18.74Q591.83-15.4 591.83-10.92L591.83-10.92Q591.83-6.38 589.13-3.1L589.13-3.1Q586.26 0.46 580.97 0.46 575.68 0.46 572.81-3.1L572.81-3.1Q570.11-6.32 570.11-10.86ZM573.85-10.86L573.85-10.86Q573.85-9.48 574.22-7.93 574.59-6.38 575.57-5.06L575.57-5.06Q577.52-2.24 580.97-2.24L580.97-2.24Q584.59-2.24 586.37-5.06L586.37-5.06Q588.04-7.7 588.04-10.92L588.04-10.92Q588.04-14.25 586.37-16.67L586.37-16.67Q584.54-19.54 580.97-19.54L580.97-19.54Q577.52-19.54 575.57-16.67L575.57-16.67Q573.85-14.31 573.85-10.86ZM595.57-10.92L595.57-10.92Q595.57-15.69 598.27-18.85L598.27-18.85Q601.2-22.24 605.91-22.24L605.91-22.24Q609.93-22.24 612.06-20.57L612.06-20.57Q612.69-20.11 612.69-19.48 612.69-18.85 612.35-18.48 612-18.1 611.54-18.1 611.08-18.1 610.85-18.28L610.85-18.28Q608.67-19.54 606.26-19.48L606.26-19.48Q603.1-19.48 601.31-17.13L601.31-17.13Q599.3-14.71 599.3-10.92L599.3-10.92Q599.3-7.41 600.74-5L600.74-5Q602.46-2.24 606.26-2.24L606.26-2.24Q608.33-2.24 611.31-3.68L611.31-3.68Q612.12-4.14 612.69-3.45L612.69-3.45Q613.04-3.1 613.04-2.5 613.04-1.9 612.29-1.29 611.54-0.69 610.51-0.34L610.51-0.34Q607.98 0.52 605.62 0.49 603.27 0.46 601.37-0.4 599.48-1.26 598.21-2.93L598.21-2.93Q595.57-6.09 595.57-10.92ZM622.46-29.43L622.46-29.43Q622.46-28.51 621.83-27.93 621.2-27.36 620.05-27.36 618.9-27.36 618.27-27.93 617.63-28.51 617.63-29.43L617.63-29.43Q617.63-30.23 618.27-30.8 618.9-31.38 620.08-31.38 621.25-31.38 621.86-30.8 622.46-30.23 622.46-29.43ZM618.32-1.72L618.32-20Q618.32-20.86 618.9-21.35 619.47-21.84 619.93-21.84 620.39-21.84 620.68-21.7 620.97-21.55 621.25-21.26L621.25-21.26Q621.89-20.86 621.89-20L621.89-20 621.89-1.72Q621.89-0.86 621.31-0.43 620.74 0 620.05 0L620.05 0Q619.36 0 618.84-0.43 618.32-0.86 618.32-1.72L618.32-1.72ZM639.01-13.28L639.01-13.28Q640.22-13.28 641.42-13.22L641.42-13.22 641.42-15.06Q641.42-19.54 636.42-19.54L636.42-19.54Q634.18-19.54 633.15-19.14L633.15-19.14Q631.31-18.45 630.5-17.96 629.7-17.47 629.24-17.47 628.78-17.47 628.38-17.82 627.98-18.16 627.98-18.74L627.98-18.74Q627.98-19.2 628.49-19.66L628.49-19.66Q631.19-22.24 636.48-22.24L636.48-22.24Q642.57-22.24 644.3-18.16L644.3-18.16Q644.87-16.72 644.87-14.83L644.87-14.83 644.76-1.55Q644.76-0.8 644.24-0.4 643.72 0 643.09 0 642.46 0 641.94-0.34 641.42-0.69 641.42-1.49L641.42-1.49 641.42-3.56Q640.04-0.57 636.48 0.17L636.48 0.17Q635.39 0.46 634.01 0.46 632.63 0.46 631.28 0.06 629.93-0.34 628.9-1.21L628.9-1.21Q626.77-2.99 626.77-6.03L626.77-6.03Q626.77-13.28 639.01-13.28ZM641.42-8.74L641.42-10.69Q640.5-10.57 639.3-10.57 638.09-10.57 636.83-10.55 635.56-10.52 634.41-10.26 633.26-10 632.34-9.48L632.34-9.48Q630.39-8.45 630.27-6.09L630.27-6.09Q630.27-4.25 631.77-3.22L631.77-3.22Q632.92-2.3 635.04-2.24L635.04-2.24Q637.63-2.24 639.53-3.91L639.53-3.91Q641.25-5.52 641.42-8.74L641.42-8.74ZM651.48-1.72L651.48-29.54Q651.48-30.46 652.05-30.86 652.63-31.26 653.09-31.26 653.55-31.26 653.84-31.21 654.12-31.15 654.41-30.86L654.41-30.86Q655.04-30.46 655.04-29.54L655.04-29.54 655.04-1.72Q655.04-0.86 654.47-0.43 653.89 0 653.2 0L653.2 0Q652.51 0 652-0.43 651.48-0.86 651.48-1.72L651.48-1.72ZM671.88-10.92L671.88-10.92Q671.88-15.69 674.58-18.85L674.58-18.85Q677.51-22.24 682.22-22.24L682.22-22.24Q686.24-22.24 688.37-20.57L688.37-20.57Q689-20.11 689-19.48 689-18.85 688.66-18.48 688.31-18.1 687.85-18.1 687.39-18.1 687.16-18.28L687.16-18.28Q684.98-19.54 682.57-19.48L682.57-19.48Q679.41-19.48 677.62-17.13L677.62-17.13Q675.61-14.71 675.61-10.92L675.61-10.92Q675.61-7.41 677.05-5L677.05-5Q678.77-2.24 682.57-2.24L682.57-2.24Q684.64-2.24 687.62-3.68L687.62-3.68Q688.43-4.14 689-3.45L689-3.45Q689.35-3.1 689.35-2.5 689.35-1.9 688.6-1.29 687.85-0.69 686.82-0.34L686.82-0.34Q684.29 0.52 681.93 0.49 679.58 0.46 677.68-0.4 675.78-1.26 674.52-2.93L674.52-2.93Q671.88-6.09 671.88-10.92ZM693.08-10.86L693.08-10.86Q693.08-12.93 693.74-15 694.4-17.07 695.78-18.74L695.78-18.74Q698.66-22.24 703.94-22.24 709.23-22.24 712.1-18.74L712.1-18.74Q714.81-15.4 714.81-10.92L714.81-10.92Q714.81-6.38 712.1-3.1L712.1-3.1Q709.23 0.46 703.94 0.46 698.66 0.46 695.78-3.1L695.78-3.1Q693.08-6.32 693.08-10.86ZM696.82-10.86L696.82-10.86Q696.82-9.48 697.19-7.93 697.56-6.38 698.54-5.06L698.54-5.06Q700.49-2.24 703.94-2.24L703.94-2.24Q707.56-2.24 709.35-5.06L709.35-5.06Q711.01-7.7 711.01-10.92L711.01-10.92Q711.01-14.25 709.35-16.67L709.35-16.67Q707.51-19.54 703.94-19.54L703.94-19.54Q700.49-19.54 698.54-16.67L698.54-16.67Q696.82-14.31 696.82-10.86ZM720.03-1.61L720.03-20.17Q720.03-20.92 720.61-21.38 721.18-21.84 721.76-21.84L721.76-21.84Q722.96-21.84 723.31-20.92 723.65-20 723.48-18.16L723.48-18.16Q724.17-19.89 726.47-21.15L726.47-21.15Q728.48-22.24 730.46-22.24 732.45-22.24 733.83-21.75 735.2-21.26 736.35-20.23L736.35-20.23Q738.65-18.05 738.65-13.79L738.65-13.79 738.65-1.61Q738.65-0.8 738.05-0.4 737.45 0 736.81 0L736.81 0Q736.12 0 735.61-0.43 735.09-0.86 735.09-1.61L735.09-1.61 735.09-14.02Q735.09-16.72 733.6-18.16L733.6-18.16Q732.22-19.54 730.15-19.54L730.15-19.54Q727.39-19.54 725.43-17.93L725.43-17.93Q723.48-16.21 723.48-12.64L723.48-12.64 723.48-1.61Q723.48-0.8 722.91-0.4 722.33 0 721.64 0L721.64 0Q720.95 0 720.49-0.43 720.03-0.86 720.03-1.61L720.03-1.61ZM745.37-1.61L745.37-20.17Q745.37-20.92 745.95-21.38 746.52-21.84 747.1-21.84L747.1-21.84Q748.31-21.84 748.65-20.92 749-20 748.82-18.16L748.82-18.16Q749.51-19.89 751.81-21.15L751.81-21.15Q753.82-22.24 755.81-22.24 757.79-22.24 759.17-21.75 760.55-21.26 761.7-20.23L761.7-20.23Q764-18.05 764-13.79L764-13.79 764-1.61Q764-0.8 763.39-0.4 762.79 0 762.16 0L762.16 0Q761.47 0 760.95-0.43 760.43-0.86 760.43-1.61L760.43-1.61 760.43-14.02Q760.43-16.72 758.94-18.16L758.94-18.16Q757.56-19.54 755.49-19.54L755.49-19.54Q752.73-19.54 750.78-17.93L750.78-17.93Q748.82-16.21 748.82-12.64L748.82-12.64 748.82-1.61Q748.82-0.8 748.25-0.4 747.67 0 746.98 0L746.98 0Q746.29 0 745.83-0.43 745.37-0.86 745.37-1.61L745.37-1.61ZM790.14-11.55L790.14-11.55Q790.14-10.34 788.76-10.23L788.76-10.23 773.02-10.23Q773.25-4.37 777.61-2.64L777.61-2.64Q778.82-2.24 780.37-2.24L780.37-2.24Q783.59-2.24 786.92-4.6L786.92-4.6Q787.96-5.17 788.65-4.48L788.65-4.48Q788.99-4.14 788.88-3.79L788.88-3.79Q788.88-2.99 788.48-2.64L788.48-2.64Q785.31 0.52 780.14 0.46L780.14 0.46Q775.43 0.46 772.56-2.59L772.56-2.59Q769.34-5.75 769.34-10.92L769.34-10.92Q769.34-15.69 771.98-18.79L771.98-18.79Q774.74-22.24 779.8-22.24L779.8-22.24Q784.86-22.24 787.5-19.2L787.5-19.2Q790.03-16.44 790.14-11.55ZM773.13-12.59L786.75-12.59Q786.58-15.69 784.74-17.7L784.74-17.7Q783.02-19.54 779.8-19.54L779.8-19.54Q777.04-19.54 775.08-17.47L775.08-17.47Q773.3-15.4 773.13-12.59L773.13-12.59ZM794.05-10.92L794.05-10.92Q794.05-15.69 796.75-18.85L796.75-18.85Q799.68-22.24 804.39-22.24L804.39-22.24Q808.42-22.24 810.54-20.57L810.54-20.57Q811.17-20.11 811.17-19.48 811.17-18.85 810.83-18.48 810.48-18.1 810.02-18.1 809.57-18.1 809.34-18.28L809.34-18.28Q807.15-19.54 804.74-19.48L804.74-19.48Q801.58-19.48 799.8-17.13L799.8-17.13Q797.78-14.71 797.78-10.92L797.78-10.92Q797.78-7.41 799.22-5L799.22-5Q800.94-2.24 804.74-2.24L804.74-2.24Q806.81-2.24 809.8-3.68L809.8-3.68Q810.6-4.14 811.17-3.45L811.17-3.45Q811.52-3.1 811.52-2.5 811.52-1.9 810.77-1.29 810.02-0.69 808.99-0.34L808.99-0.34Q806.46 0.52 804.11 0.49 801.75 0.46 799.85-0.4 797.96-1.26 796.69-2.93L796.69-2.93Q794.05-6.09 794.05-10.92ZM828.3-1.26L828.3-1.26Q828.3 0.46 824.22 0.46L824.22 0.46Q821.17 0.46 819.91-1.21L819.91-1.21Q818.53-2.99 818.41-7.07L818.41-7.07 818.41-19.14 815.88-19.14Q815.19-19.14 814.79-19.57 814.39-20 814.39-20.46L814.39-20.46Q814.39-20.92 814.74-21.38 815.08-21.84 815.88-21.84L815.88-21.84 818.64-21.84 818.87-28.05Q818.99-28.74 819.51-29.11 820.02-29.48 820.6-29.48 821.17-29.48 821.57-29.14 821.98-28.79 821.98-28.05L821.98-28.05 821.98-21.84 825.94-21.84Q826.63-21.84 827.01-21.38 827.38-20.92 827.38-20.46L827.38-20.46Q827.38-19.89 827.01-19.51 826.63-19.14 825.94-19.14L825.94-19.14 821.98-19.14 821.98-8.97Q821.98-4.71 822.26-3.82 822.55-2.93 823.18-2.59 823.82-2.24 824.74-2.24L824.74-2.24 826.98-2.41Q827.61-2.41 827.95-2.01 828.3-1.61 828.3-1.26ZM836.34-29.43L836.34-29.43Q836.34-28.51 835.71-27.93 835.08-27.36 833.93-27.36 832.78-27.36 832.15-27.93 831.51-28.51 831.51-29.43L831.51-29.43Q831.51-30.23 832.15-30.8 832.78-31.38 833.96-31.38 835.13-31.38 835.74-30.8 836.34-30.23 836.34-29.43ZM832.2-1.72L832.2-20Q832.2-20.86 832.78-21.35 833.35-21.84 833.81-21.84 834.27-21.84 834.56-21.7 834.85-21.55 835.13-21.26L835.13-21.26Q835.77-20.86 835.77-20L835.77-20 835.77-1.72Q835.77-0.86 835.19-0.43 834.62 0 833.93 0L833.93 0Q833.24 0 832.72-0.43 832.2-0.86 832.2-1.72L832.2-1.72ZM840.99-10.86L840.99-10.86Q840.99-12.93 841.66-15 842.32-17.07 843.7-18.74L843.7-18.74Q846.57-22.24 851.86-22.24 857.14-22.24 860.02-18.74L860.02-18.74Q862.72-15.4 862.72-10.92L862.72-10.92Q862.72-6.38 860.02-3.1L860.02-3.1Q857.14 0.46 851.86 0.46 846.57 0.46 843.7-3.1L843.7-3.1Q840.99-6.32 840.99-10.86ZM844.73-10.86L844.73-10.86Q844.73-9.48 845.1-7.93 845.48-6.38 846.45-5.06L846.45-5.06Q848.41-2.24 851.86-2.24L851.86-2.24Q855.48-2.24 857.26-5.06L857.26-5.06Q858.93-7.7 858.93-10.92L858.93-10.92Q858.93-14.25 857.26-16.67L857.26-16.67Q855.42-19.54 851.86-19.54L851.86-19.54Q848.41-19.54 846.45-16.67L846.45-16.67Q844.73-14.31 844.73-10.86ZM867.95-1.61L867.95-20.17Q867.95-20.92 868.52-21.38 869.1-21.84 869.67-21.84L869.67-21.84Q870.88-21.84 871.22-20.92 871.57-20 871.39-18.16L871.39-18.16Q872.08-19.89 874.38-21.15L874.38-21.15Q876.39-22.24 878.38-22.24 880.36-22.24 881.74-21.75 883.12-21.26 884.27-20.23L884.27-20.23Q886.57-18.05 886.57-13.79L886.57-13.79 886.57-1.61Q886.57-0.8 885.96-0.4 885.36 0 884.73 0L884.73 0Q884.04 0 883.52-0.43 883-0.86 883-1.61L883-1.61 883-14.02Q883-16.72 881.51-18.16L881.51-18.16Q880.13-19.54 878.06-19.54L878.06-19.54Q875.3-19.54 873.35-17.93L873.35-17.93Q871.39-16.21 871.39-12.64L871.39-12.64 871.39-1.61Q871.39-0.8 870.82-0.4 870.24 0 869.56 0L869.56 0Q868.87 0 868.41-0.43 867.95-0.86 867.95-1.61L867.95-1.61Z" opacity="1" transform="matrix(1,0,0,1,0,0)" fill="#6c47ff" class="slogan-text-1" data-fill-palette-color="secondary" id="text-1"></path></svg></g></svg></g></svg></g></svg></g><g transform="matrix(1,0,0,1,408.1869743881155,0)"><svg viewBox="0 0 124.55529024553495 106.36703006550125" height="106.36703006550125" width="124.55529024553495"><g><svg xmlns="http://www.w3.org/2000/svg" xmlns:xlink="http://www.w3.org/1999/xlink" version="1.1" x="0" y="0" viewBox="53.59599999999996 121.94360519366552 936.8704949590827 800.0634249123443" style="enable-background:new 0 0 1024 1024;" xml:space="preserve" height="106.36703006550125" width="124.55529024553495" class="icon-icon-0" data-fill-palette-color="accent" id="icon-0"><g fill="#6c47ff" data-fill-palette-color="accent"><path d="M490 148.6c-14-31.2-48-15.2-80 20.8-54 60.7-220.1 71-283.7 42.5-63.2-28.3-62.7 22.5-62.7 22.5 3.9 549.4 321 504.9 321 504.9C698.2 629.1 490 148.6 490 148.6zM165.5 414.4c6.7-40.6 45.5-49 45.5-49 52.7-17 70.6 35.2 70.6 35.2C258.9 464.5 165.5 414.4 165.5 414.4zM364.3 634.5c-83.9 19.6-139.4-73-139.4-73C369.7 624.7 458 514.7 458 514.7S448.2 614.9 364.3 634.5zM353.4 391.6c0 0-8.7-54.5 45.8-64.3 0 0 38.1-10.9 63.2 21.8C462.3 349.1 403.5 437.4 353.4 391.6z" fill="#6c47ff" data-fill-palette-color="accent"></path><g fill="#6c47ff" data-fill-palette-color="accent"><path d="M363 389c0.6 4 0.1 0.8 0-1.3-0.2-3-0.2-6.1 0-9.1 0.1-1 0.2-2 0.3-2.9 0.2-2.6-0.2 0.8 0.1-0.8 0.4-2.2 0.8-4.5 1.4-6.7 0.6-2.3 1.4-4.7 2.3-6.9-0.8 1.9 0.4-0.8 0.8-1.5 0.7-1.3 1.4-2.6 2.1-3.8 0.6-1 1.3-2 2-3-1.1 1.4 1.3-1.6 1.7-1.9 1-1.1 2-2.1 3.1-3.1 1.4-1.3 2.1-1.8 2.7-2.2 5.7-3.9 10.8-6.1 17.5-7.7 2.7-0.7 5.5-1.2 8.3-1.8 0.3-0.1 0.7-0.1 1-0.2 2-0.5-2 0.2-0.6 0.1 0.9-0.1 1.8-0.2 2.8-0.3 2.6-0.2 5.3-0.3 7.9-0.2 6 0.2 12 1.3 18.1 3.9 8.4 3.6 15.1 9.6 20.7 16.7-0.5-4-1-8.1-1.6-12.1-0.5 0.7-1 1.4-1.5 2.1-0.5 0.8-1.1 1.5-1.7 2.3-0.3 0.5-0.7 0.9-1 1.4-1.6 2.2 0.5-0.5-0.4 0.5-4.9 6.1-9.9 12-15.4 17.5-7.3 7.3-13.5 12.6-21.5 17.6-2 1.2-4 2.4-6 3.5-1 0.5-2.1 1-3.1 1.5-0.6 0.3-1.2 0.6-1.8 0.8 1-0.4 0.2-0.1-0.3 0.1-2.3 0.8-4.6 1.6-6.9 2.2-1.1 0.3-2.2 0.5-3.3 0.7-0.6 0.1-1.3 0.2-1.9 0.3 1.1-0.1 0.6-0.1-0.2 0-2.7 0.2-5.4 0.2-8.1 0-1.2-0.1 0.1 0 0.3 0.1-0.8-0.1-1.6-0.3-2.4-0.5-1.5-0.3-2.9-0.7-4.3-1.2-1.8-0.6-1.3-0.4-2.4-0.9-1.3-0.6-2.6-1.3-3.8-2-3-1.7-5-3.3-7.5-5.5-9.6-8.6-23.8 5.5-14.1 14.1 10 9 21.7 14.9 35.3 16 11.6 0.9 23.1-2.6 33.4-7.7 18.2-9.1 33.6-24.2 46.3-39.8 3.4-4.2 6.7-8.4 9.7-12.9 2.7-4 1.1-8.7-1.6-12.1-17.5-22.3-45.8-30.2-72.9-24.4-15 3.2-29.2 9.5-39 21.6-8.1 10-12.4 21.9-14 34.5-0.8 6.8-0.8 13.6 0.2 20.4 0.8 5.3 7.5 8.3 12.3 7C361.7 399.7 363.9 394.3 363 389z" fill="#6c47ff" data-fill-palette-color="accent"></path><path d="M361.6 624.9c-27.5 6.3-53.8-0.7-77-15.8-9.7-6.3-18-13.3-26.6-22.1-3.6-3.7-7.2-7.5-10.5-11.5-1.4-1.6-2.7-3.3-4.1-5-0.2-0.3-2.1-2.7-1.1-1.4 0.9 1.2-1-1.4-1.3-1.8-2.6-3.5-5.2-7.1-7.5-10.8-4.6 4.6-9.1 9.1-13.7 13.7 47 20.3 98.8 27.7 148.5 13 31.2-9.2 60.1-26 83.9-48.1 4.5-4.2 9-8.5 12.9-13.3-5.7-2.4-11.4-4.7-17.1-7.1 0 0.2-0.1 0.5-0.1 0.6 0.1 0.2-0.1 0.6-0.1 0.8 0 0.9 0.5-3.3 0.2-1.2-0.4 2.4-0.8 4.8-1.2 7.2-1.6 8.2-3.8 16.3-6.5 24.2-3.6 10.7-6.9 18.3-13.2 28.9-6.8 11.4-13.6 20-24 29C391.7 614 377 621.2 361.6 624.9c-12.5 3-7.2 22.3 5.3 19.3 30.8-7.4 56.3-26.6 73.7-52.9 12.1-18.4 20.3-39.7 24.9-61.2 1.1-5.1 2-10.2 2.5-15.4 0.8-8.3-11.8-13.7-17.1-7.1-2.9 3.6-6.2 7-9.6 10.2-3.7 3.6-7.6 7.1-11.6 10.4-1.1 0.9-2.2 1.8-3.3 2.7-0.7 0.5-2.2 1.7-0.6 0.5-0.7 0.5-1.4 1.1-2.1 1.6-2.8 2.1-5.6 4.1-8.5 6.1-14 9.4-28.7 16.9-43.5 22-19.4 6.8-38.4 10-58.6 10-28.6 0-57-6.9-83.2-18.2-4.2-1.8-8.7-1.8-12.1 1.6-3.1 3.1-3.8 8.3-1.6 12.1 7.1 11.8 16.2 22.7 25.7 32.6 19.1 19.9 42.8 36.8 69.7 44.1 18.1 5 37 5.1 55.3 0.9C379.5 641.3 374.2 622 361.6 624.9z" fill="#6c47ff" data-fill-palette-color="accent"></path><path d="M175.1 417c1.3-7.6 3.6-14.3 7.8-20.8 1.6-2.4 2.5-3.6 4.9-6.1 1.1-1.1 2.2-2.2 3.3-3.2 0.6-0.5 1.2-1.1 1.9-1.6 1.3-1.1-0.2 0.1 0.6-0.5 4-3 8.4-5.5 13-7.5 1.5-0.7-1.8 0.6 0.5-0.2 0.8-0.3 1.5-0.6 2.2-0.8 1.1-0.4 2.2-0.7 3.3-1 11.2-3.2 21.1-4.6 31.3-1.2 0.6 0.2 1.2 0.4 1.8 0.7 1.7 0.6-2-1 0.7 0.3 1.1 0.5 2.2 1.1 3.3 1.7 1.2 0.7 2.3 1.4 3.5 2.2 0.6 0.4 1.2 0.8 1.8 1.3-1.1-0.8-0.2-0.2 0.4 0.3 1.8 1.6 3.5 3.2 5.2 4.9 0.9 1 1.8 2 2.6 3 0.3 0.4 0.6 0.8 1 1.2-1-1.3-0.4-0.5 0.2 0.4 2.3 3.4 4.5 6.8 6.2 10.5 0.3 0.6 0.6 1.3 0.9 1.9 1.1 2.3-0.5-1.4-0.2-0.6 0.1 0.5 0.4 0.9 0.5 1.4 0-1.8 0-3.5 0-5.3-3.4 9.3-8.8 16.1-17 20.4-0.9 0.5-1.9 0.9-2.8 1.4-1.4 0.6 1.4-0.5-0.1 0-0.6 0.2-1.1 0.4-1.7 0.6-2.4 0.8-4.9 1.5-7.4 1.9-0.5 0.1-3.2 0.5-2.3 0.4 0.9-0.1-1.8 0.2-2.3 0.2-2.6 0.2-5.3 0.2-7.9 0.2-2.3-0.1-4.7-0.2-7-0.4-0.4 0-4.1-0.5-2-0.2-1.4-0.2-2.8-0.4-4.2-0.7-4.7-0.8-9.3-1.9-13.9-3.2-4.4-1.2-8.7-2.6-12.9-4.2-1.9-0.7-3.8-1.4-5.7-2.2-0.8-0.3-1.5-0.6-2.3-0.9-2.8-1.1 0.2 0.1-0.9-0.4-3.7-1.6-7.4-3.3-11-5.2-11.3-6.1-21.5 11.2-10.1 17.3 13.2 7.1 27.8 12.5 42.4 16.1 24.3 6 52.6 6.9 72.5-10.7 4.9-4.4 9.1-10 12-15.9 2.4-4.8 5.2-10.1 3.6-15.5-2.3-7.5-7.2-14.8-12-20.9-7.5-9.5-17.2-16.9-28.7-21-13.8-4.9-28.3-3.2-42.1 0.7-26.5 7.5-47.4 28.3-52.2 55.9-0.9 5.3 1.4 10.8 7 12.3C167.7 425.3 174.2 422.4 175.1 417z" fill="#6c47ff" data-fill-palette-color="accent"></path><path d="M498.6 143.5c-5.3-11.4-14.8-19.8-27.5-21.3-12.1-1.5-24.3 3.8-34.3 10.2-13.4 8.5-24.4 19.7-35.1 31.3-6.8 7.3-12.2 11.4-20.3 16.6-36.4 23-82.7 32-125.5 35.4-22.9 1.8-46 2-68.9-0.1-17.1-1.6-35.5-4.5-52.8-11.1-0.8-0.3-1.5-0.6-2.3-0.9 2.3 0.9-0.9-0.4-1.3-0.6-3.9-1.7-7.8-3.4-11.9-4.8-6.1-2.1-12.2-3.6-18.6-4.4-9.1-1.1-18.4-0.1-26.6 4.2-10.8 5.7-17.3 17.4-19.2 29.2-0.8 4.8-0.7 9.2-0.7 14.1 0.2 15.8 0.6 31.6 1.4 47.3 1.4 28.1 3.7 56.2 7.2 84.1 6 46.7 15 93.1 29.7 137.9 11.4 34.6 25.9 68.4 45.1 99.4 15.2 24.6 33.3 47.7 54.4 67.6 17.4 16.3 36.8 30.6 57.8 41.9 17.4 9.3 35.9 16.8 54.9 21.9 14.9 4 30.2 6.7 45.6 8 9.3 0.8 18.6 1 27.9 0.5 14.1-0.8 26.8-7.2 39.4-13.2 33.9-15.9 64.7-39 88.1-68.4 22-27.6 37.7-59.5 47.5-93.4 9.9-34.1 14.2-69.9 14.8-105.4 0.7-35.8-2.4-71.5-7.7-106.9-4.8-32-11.5-63.7-19.8-95-6.6-25.1-14.2-49.9-22.6-74.4-4.9-14.1-10-28.1-15.7-41.9C500.8 148.7 499.7 146.1 498.6 143.5c-2.1-5-9.4-6.1-13.7-3.6-5.1 3-5.7 8.7-3.6 13.7 0.9 2.1-0.2-0.5-0.4-0.8 0.6 1.4 1.2 2.9 1.8 4.3 2.2 5.4 4.3 10.8 6.4 16.3 7.3 19.3 13.9 38.8 20 58.4 8.5 27.7 16 55.8 22 84.1 3.4 16 6.4 32.2 8.9 48.4 1.5 9.6 2.1 14.3 3.2 23.4 1 8.5 1.9 17.1 2.5 25.6 2.7 34.3 2.8 68.9-1.4 103-0.1 1.1-0.3 2.2-0.4 3.2 0.2-1.9-0.1 1-0.2 1.5-0.3 2.2-0.6 4.3-1 6.5-0.7 4.1-1.4 8.2-2.2 12.4-1.6 8.3-3.5 16.6-5.8 24.7-2.2 8.1-4.7 16.1-7.6 24-3.2 8.9-5.1 13.2-9 21.5-3.6 7.5-7.6 14.9-11.9 22-4.1 6.7-9.6 14.8-13.7 20.1-4.2 5.4-10.7 12.9-16.3 18.6-6.1 6.3-12.6 12.2-19.4 17.7-3.9 3.2-5.3 4.2-9.7 7.4-3.7 2.6-7.4 5.2-11.3 7.6-8.1 5.1-16.5 9.8-25.1 14-9.4 4.6-17 7.7-26.8 11.3-5.8 2.1 2 0.3-0.2 0.5-5.7 0.5-11.3 0.8-17 0.8-5.2 0-10.5-0.3-15.7-0.7-3.1-0.2-6.2-0.5-9.3-0.9-0.8-0.1-1.6-0.2-2.3-0.3-2.4-0.3 2.7 0.4-0.3 0-1.8-0.3-3.5-0.5-5.3-0.8-16.2-2.7-32.2-7-47.6-12.8-2.1-0.8-4.3-1.7-6.4-2.5-0.4-0.2-2.4-1-0.7-0.3 1.6 0.7-0.1 0-0.5-0.2-1.2-0.5-2.4-1-3.6-1.6-4.5-2-9-4.2-13.4-6.5-9.4-4.9-18.5-10.4-27.2-16.5-2.4-1.6-4.7-3.3-7-5.1-1.1-0.8-2.2-1.6-3.3-2.5-0.1-0.1 1.3 1.1-0.2-0.2-0.7-0.5-1.3-1.1-2-1.6-4.6-3.7-9.1-7.6-13.5-11.6-9.6-8.8-18.6-18.2-27-28.2-2.3-2.7-4.5-5.5-6.7-8.3-0.5-0.7-1.4-1.8-0.3-0.4-0.6-0.7-1.1-1.4-1.6-2.2-1.1-1.5-2.2-2.9-3.3-4.4-4.4-6-8.6-12.2-12.6-18.5-8.7-13.8-16.6-28.1-23.6-42.9-4-8.3-7.2-15.8-10.1-23.1-3.6-8.8-6.9-17.8-10-26.8-6.8-19.9-12.4-40.1-17.2-60.5-11.4-49.4-17.6-99.8-20.5-150.3-0.9-14.9-1.5-29.9-1.8-44.8-0.2-7.8-0.7-15.6-0.2-23.4 0-0.6 0.4-3 0.1-0.8-0.4 2.3 0.2-0.9 0.3-1.5 0.5-2.2 1.2-4.3 1.9-6.4 0.1-0.2-1.1 2.1 0 0.2 0.3-0.5 0.5-1 0.8-1.5 0.6-1.2 1.4-2.3 2.1-3.3-1.7 2.5 0.9-0.8 1.6-1.5 0.4-0.4 0.9-0.8 1.4-1.2-1.7 1.4-0.3 0.3 0.6-0.3 0.6-0.3 1.2-0.6 1.8-1 1.3-0.8-1.6 0.4 0.5-0.2 1.8-0.5 3.4-1 5.3-1.3 1.5-0.3-1.7 0.1-0.1 0 0.4 0 0.9-0.1 1.3-0.1 0.9 0 1.9-0.1 2.8-0.1 1.2 0 2.3 0.1 3.5 0.2 1.9 0.1 0.8 0 2.8 0.4 11 2.1 20.6 7 31 10.7 17.8 6.4 37 9.3 55.7 11 45.5 4.2 92.7 0.4 137.1-10.8 21-5.3 41.8-12.6 60.7-23.2 8.4-4.7 16.4-10.2 23.6-16.5 9.9-8.6 17.9-19.1 28-27.5 8.2-6.9 18.3-14.3 29.2-15.5-1.4 0.2 1.7 0 2.1 0 0.5 0 2.8 0.2 2.2 0.1 1.7 0.3 2.1 0.5 4.1 1.6 1.3 0.7 2.3 1.5 3.9 3.6 0.8 1 2.6 4.4 3.6 6.4 2.3 4.9 9.3 6.1 13.7 3.6C500 154.3 500.9 148.5 498.6 143.5z" fill="#6c47ff" data-fill-palette-color="accent"></path></g></g><g fill="#6c47ff" data-fill-palette-color="accent"><g fill="#6c47ff" data-fill-palette-color="accent"><path d="M466.9 760.6c12.6 31.7 29.2 60.4 51.6 86.2 16.1 18.5 35.1 34.6 55.6 48 13.7 8.9 28.2 16.1 43.4 22.1 12.4 5 25.8 5 39.1 5.1 42.4 0.3 84.2-9 122.1-28.2 32.7-16.6 61.7-41.2 85-69.4 24.2-29.3 43.7-61.6 59.3-96.2 15.5-34.5 27.9-70.2 37.5-106.8 8.1-30.8 14.3-62.2 19-93.7 3.9-26.3 7.1-52.7 9.1-79.2 0.8-11.1 1.4-22.3 1.8-33.4 0.3-10.6-0.3-21.7-4.2-31.7-5-13-12.8-24.1-25-31.3-11.5-6.8-25.8-9.3-39-8-19.4 1.9-36.4 8.1-54.3 15.8 2.4-1 4.8-2 7.2-3-11 4.6-22.6 7.3-34.3 8.9 2.7-0.4 5.3-0.7 8-1.1-23.3 3.1-47 2-70.3-1.1 2.7 0.4 5.3 0.7 8 1.1-33.3-4.5-66.2-13.3-97.2-26.3 2.4 1 4.8 2 7.2 3-13-5.5-25.7-11.7-37.6-19.2-2.5-1.6-5-3.2-7.5-5-1.2-0.9-2.5-1.8-3.7-2.7-3.7-2.7 5.5 4.4 3.3 2.6-0.5-0.4-1-0.8-1.5-1.2-4.3-3.5-8.4-7.3-12.1-11.5-10.5-11.7-31.9-11.5-42.4 0-11.5 12.5-11.2 29.9 0 42.4 12 13.4 27.6 24 43.2 32.8 19.2 10.7 39.8 19.2 60.6 26.1 20 6.7 40.5 11.8 61.2 15.2 22.7 3.7 45.7 6.2 68.7 5.4 12.8-0.5 25.7-1.9 38.2-4.4 12-2.4 22.9-6.6 34.1-11.4-2.4 1-4.8 2-7.2 3 11-4.6 22.3-8.6 34.2-10.3-2.7 0.4-5.3 0.7-8 1.1 4.7-0.6 9.4-0.8 14.1-0.2-2.7-0.4-5.3-0.7-8-1.1 2.9 0.4 5.8 1.1 8.5 2.2-2.4-1-4.8-2-7.2-3 1.7 0.7 3.3 1.7 4.9 2.6 3.4 2-7.1-6.2-3.5-2.7 0.5 0.5 1.1 1 1.6 1.6 2 1.9 2.6 5.2-2.9-3.9 0.4 0.7 1 1.3 1.4 2 0.9 1.4 1.6 2.9 2.2 4.4-1-2.4-2-4.8-3-7.2 1.4 3.4 2.3 6.9 2.8 10.6-0.4-2.7-0.7-5.3-1.1-8 1.1 7.9 0.4 16.2 0 24.2-0.7 14.4-1.8 28.8-3.2 43.2-1.2 11.8-2.5 23.7-4.1 35.5 0.4-2.7 0.7-5.3 1.1-8-6.9 51.3-17.5 102.3-33.7 151.6-5.1 15.5-10.7 30.7-17 45.8 1-2.4 2-4.8 3-7.2-12 28.5-26.4 56-44.2 81.3-2.2 3.2-4.5 6.3-6.8 9.4-0.5 0.7-1.1 1.3-1.6 2 0.5-0.6 5.4-7 2.6-3.4-1.2 1.6-2.5 3.1-3.7 4.7-4.7 5.8-9.7 11.5-14.9 16.9-5.2 5.5-10.7 10.8-16.4 15.8-2.7 2.4-5.5 4.8-8.4 7.1-0.8 0.6-1.5 1.2-2.3 1.8-3.6 2.8 2.8-2.2 3.4-2.6-1.6 1.1-3.1 2.4-4.7 3.5-13.8 10-28.6 18.5-44.3 25.2 2.4-1 4.8-2 7.2-3-18.3 7.7-37.5 12.8-57.1 15.5 2.7-0.4 5.3-0.7 8-1.1-19.6 2.6-39.4 2.8-59.1 1.2 2.7 0.4 5.3 0.7 8 1.1-3.8-1.1-7.5-2.6-11.1-4.2 2.4 1 4.8 2 7.2 3-15.1-6.4-29.3-14.7-42.6-24.3-1.1-0.8-2.1-1.6-3.2-2.4-4.9-3.7 4.9 3.9 2 1.6-2.4-1.9-4.7-3.8-7-5.7-4.6-3.9-9.1-8-13.4-12.3-4.8-4.7-9.4-9.7-13.8-14.8-2.1-2.5-4.1-5-6.1-7.5-2.2-2.7 4.4 5.7 2.3 2.9-0.5-0.7-1.1-1.4-1.6-2.1-1.2-1.6-2.4-3.3-3.6-4.9-10.5-14.9-19.3-31-26.4-47.8 1 2.4 2 4.8 3 7.2-0.8-2-1.6-4-2.4-6-3-7.5-6.5-13.7-13.8-17.9-6.4-3.8-15.9-5.4-23.1-3-7.3 2.3-14.3 6.8-17.9 13.8C466.4 744.2 464 753.2 466.9 760.6L466.9 760.6z" fill="#6c47ff" data-fill-palette-color="accent"></path></g></g><g fill="#6c47ff" data-fill-palette-color="accent"><path d="M587.8 508.9c22-33 59.3-24.9 59.3-24.9 53 6 48 58.9 48 58.9C649.9 590 587.8 508.9 587.8 508.9z" fill="#6c47ff" data-fill-palette-color="accent"></path><g fill="#6c47ff" data-fill-palette-color="accent"><path d="M596.4 514c8-11.7 19.1-17.9 32.4-20.3 0.3-0.1 2-0.3 0.2 0 0.6-0.1 1.2-0.1 1.8-0.2 1.1-0.1 2.3-0.2 3.4-0.2 2.2-0.1 4.4-0.1 6.5 0.1 0.8 0 1.5 0.1 2.3 0.2 2.3 0.2 0.6-0.2-0.3-0.1 0.5-0.1 1.2 0.2 1.7 0.3 6.5 1 13.8 2.5 18.8 5 5.6 2.9 7.7 4.6 11.8 9.2 0.4 0.4 0.8 0.9 1.2 1.4-1.1-1.4-0.2-0.2 0 0.1 0.7 1.1 1.5 2.1 2.1 3.3 0.6 1 1.1 1.9 1.6 2.9 0.3 0.5 0.5 1 0.7 1.5 1 1.9 0.1 0 0.3 0.6 1.6 4 2.7 8.2 3.5 12.5 0.4 1.9 0.3 2.1 0.2 0.8 0.1 1 0.2 1.9 0.3 2.9 0.1 1.5 0.2 3.1 0.2 4.6 0 1.5 0 3-0.1 4.4 1-2.4 2-4.7 2.9-7.1-3.9 4-7 6.4-12.1 9-1.5 0.7-2.2 1-4.7 1.7-1.1 0.3-2.2 0.5-3.3 0.8-2.2 0.5 0.1 0.2-2.1 0.3-2.2 0.1-4.4 0.1-6.7 0-2.2-0.1 0 0.1-1.6-0.2-1.3-0.2-2.5-0.5-3.8-0.8-2.2-0.5-4.4-1.2-6.5-2-2.8-1-2.2-0.7-4.9-2.1-4.4-2.1-8.5-4.6-12.5-7.3-4.6-3.1-6.2-4.3-10.1-7.6-6-5.1-11.7-10.6-17-16.4-2-2.1-3.9-4.3-5.7-6.5-1-1.3-3.7-4.7-0.7-0.8-3.3-4.3-8.6-6.6-13.7-3.6-4.2 2.5-6.9 9.4-3.6 13.7 9.7 12.7 21.2 23.9 33.9 33.6 19 14.5 44.6 26.1 68.3 16.6 9.7-3.9 23.4-11.6 23.9-23.1 0.3-7-0.7-14.3-2.4-21.1-2.7-10.5-7.9-20.5-15.5-28.3-4.6-4.6-10.1-8.5-16-11.2-3.2-1.5-6.6-2.8-10-3.8-1.8-0.5-3.7-1-5.5-1.3-0.9-0.2-1.7-0.3-2.6-0.5-0.6-0.1-6.4-0.9-4.1-0.6 1.5 0.2-0.9-0.2-1.2-0.2-2.4-0.4-4.7-0.7-7.1-0.8-6.1-0.4-12.2 0.2-18.2 1.3-18.1 3.3-33.1 14.3-43.4 29.3-3.1 4.5-0.8 11.1 3.6 13.7C587.7 520.4 593.4 518.4 596.4 514z" fill="#6c47ff" data-fill-palette-color="accent"></path></g></g><g fill="#6c47ff" data-fill-palette-color="accent"><path d="M558.2 723.7c0.8-1.3 56.7-87.4 136.3-66.3 80.2 21.2 86.8 118 86.8 118S699.5 667 558.2 723.7z" fill="#6c47ff" data-fill-palette-color="accent"></path><g fill="#6c47ff" data-fill-palette-color="accent"><path d="M566.9 728.8c0.6-0.9 1.2-1.8 1.9-2.7 0.7-0.9 1.3-1.9 2-2.8 0.4-0.5 0.8-1.1 1.2-1.6 1.5-2-1.2 1.5 0.5-0.7 5.7-7.1 11.8-13.9 18.3-20.2 17.4-16.7 38.2-30.4 62.5-35.2 25.8-5.1 55.3 3.4 74.9 20.2 4.6 4 8.9 8.3 12.8 13 2.9 3.5 6.4 8.4 9.4 13.5 2.9 4.9 5.6 9.9 7.9 15.1 1.3 2.9 0.9 1.9 2.2 5.2 1 2.4 1.9 4.9 2.7 7.4 3 8.7 5.3 17.7 6.8 26.8 0.3 1.5 0.5 3 0.7 4.5 0.4 2.6-0.2-1.8-0.1-0.5 0.1 0.5 0.1 1.1 0.2 1.6 0.1 1 0.2 2 0.3 3 6.2-1.7 12.4-3.4 18.6-5-10.9-14.4-25-26.4-39.6-36.8-31.4-22.3-69.1-35.3-107.7-36.2-29.8-0.7-59.5 5.8-87.1 16.7-5 2-8.5 6.7-7 12.3 1.3 4.8 7.3 9 12.3 7 42.6-16.9 88.2-21.7 131.5-7.3 8.9 3 14.5 5.3 22.7 9.5 7.1 3.6 14 7.6 20.6 12.1 2.9 1.9 5.7 3.9 8.5 6 0.6 0.5 1.3 1 1.9 1.4 0.9 0.7-0.4-0.3-0.5-0.4 0.4 0.3 0.8 0.6 1.2 0.9 1.2 1 2.5 2 3.7 3 4.2 3.5 8.2 7.1 12 10.9 3 2.9 5.9 6 8.6 9.2 1 1.2 4.6 5.8 1.5 1.7 2.7 3.6 6.6 5.9 11.3 4.6 4-1.1 7.6-5.3 7.3-9.6-2.5-35.8-18-73.9-43.7-99-22.2-21.7-53.8-34.2-84.9-32.1-29.5 2.1-56 16.1-78.1 35-13.1 11.3-25.7 24.7-35 39.3C542.7 729.6 560 739.6 566.9 728.8z" fill="#6c47ff" data-fill-palette-color="accent"></path></g></g><g fill="#6c47ff" data-fill-palette-color="accent"><path d="M761.7 563.5c0 0 13.9-51.3 65.6-38.3 0 0 37.8 5.6 46.8 44.2C874.2 569.4 787.6 623.5 761.7 563.5z" fill="#6c47ff" data-fill-palette-color="accent"></path><g fill="#6c47ff" data-fill-palette-color="accent"><path d="M771.4 566.1c0.3-1.2 0.8-2.4 1.2-3.6 0.2-0.5 0.4-1.1 0.6-1.6-1.2 3.2-0.3 0.6 0.1-0.2 0.8-1.7 1.6-3.3 2.5-4.9 1-1.8 2-3.5 3.2-5.1 0.3-0.5 2.2-3 1.5-2.1-0.8 1 0.2-0.3 0.5-0.5 0.4-0.5 0.9-1 1.3-1.5 1.7-1.9 3.5-3.6 5.4-5.3 0.4-0.4 0.9-0.8 1.4-1.1-1.4 1.1-0.2 0.2 0.1 0 1.3-0.9 2.5-1.7 3.8-2.4 3.1-1.7 3.4-1.8 5.9-2.6 1.5-0.5 2.9-0.9 4.4-1.2 1.9-0.4 2.9-0.5 3.8-0.6 6.2-0.4 11.7 0.3 17.7 1.6 1.9 0.4 3.8 0.8 5.7 1.4 1.7 0.5 3.4 1.2 5.1 1.8 2.1 0.8-1.1-0.6 1.5 0.6 1.3 0.6 2.5 1.2 3.7 1.9 11.9 6.5 20.2 16.9 23.7 31.5 1.5-3.8 3.1-7.5 4.6-11.3-2.7 1.7-5.5 3.2-8.3 4.6-3 1.6-6.1 3.1-9.2 4.5-1.7 0.8-3.4 1.6-5.2 2.3 1.8-0.8-0.6 0.2-1.2 0.5-1.1 0.4-2.2 0.9-3.3 1.3-4.4 1.6-8.8 3.1-13.3 4.4-2.2 0.6-4.4 1.1-6.6 1.6-2.1 0.4-5.9 1.1-6.8 1.2-2.9 0.4-8.9 0.7-13 0.5-1.3-0.1-2.5-0.2-3.7-0.3 1.8 0.2-0.9-0.2-1.5-0.3-2.3-0.4-4.5-1.1-6.7-1.8-0.6-0.2-1.2-0.4-1.7-0.6 1.3 0.5 0 0-0.6-0.3-1.1-0.6-2.2-1.1-3.3-1.8-0.7-0.4-2.8-1.8-2.5-1.6 0.1 0.1-2-1.7-2.7-2.4-2.2-2.1-3.1-3.3-4.4-5.1-1.9-2.9-3.5-6-4.9-9.1-2.2-4.9-9.4-6.1-13.7-3.6-5.1 3-5.8 8.7-3.6 13.7 10.1 22.8 32 34.3 56.4 33.2 20.2-1 39.8-8.2 57.8-17.1 4-2 8.1-4.1 11.9-6.5 3.9-2.4 5.7-6.9 4.6-11.3-6.4-25.9-27.1-45.3-53-51-13.5-2.9-27.3-4-40.4 1.2-12.3 4.9-22 13.6-29.2 24.6-3.8 5.8-7.2 12.5-9 19.3C748.7 573.3 768 578.6 771.4 566.1z" fill="#6c47ff" data-fill-palette-color="accent"></path></g></g></svg></g></svg></g></svg></g><defs></defs></svg><rect width="395.52" height="78.96930753267233" fill="none" stroke="none" visibility="hidden"></rect></g></svg></g></svg>